<svg width="256" height="256" viewBox="0 0 256 256" fill="none" xmlns="http://www.w3.org/2000/svg">
  <g fill="#111111">
    <rect x="120" y="40" width="16" height="16" transform="rotate(45 128 48)"/>
    <rect x="96" y="64" width="16" height="16" transform="rotate(45 104 72)"/>
    <rect x="144" y="64" width="16" height="16" transform="rotate(45 152 72)"/>
    <rect x="72" y="88" width="16" height="16" transform="rotate(45 80 96)"/>
    <rect x="120" y="88" width="16" height="16" transform="rotate(45 128 96)"/>
    <rect x="168" y="88" width="16" height="16" transform="rotate(45 176 96)"/>
    
    <rect x="48" y="112" width="16" height="16" transform="rotate(45 56 120)"/>
    <rect x="96" y="112" width="16" height="16" transform="rotate(45 104 120)"/>
    <rect x="192" y="112" width="16" height="16" transform="rotate(45 200 120)"/>
    
    <rect x="72" y="136" width="16" height="16" transform="rotate(45 80 144)"/>
    <rect x="168" y="136" width="16" height="16" transform="rotate(45 176 144)"/>
    
    <rect x="96" y="160" width="16" height="16" transform="rotate(45 104 168)"/>
    <rect x="120" y="160" width="16" height="16" transform="rotate(45 128 168)"/>
    <rect x="144" y="160" width="16" height="16" transform="rotate(45 152 168)"/>
    
    <rect x="120" y="184" width="16" height="16" transform="rotate(45 128 192)"/>
  </g>
</svg>